<?xml version="1.0" encoding="UTF-8"?>
<svg id="Layer_1" xmlns="http://www.w3.org/2000/svg" version="1.1" xmlns:xlink="http://www.w3.org/1999/xlink" viewBox="0 0 440.25 281.25">
  <!-- Generator: Adobe Illustrator 30.5.1, SVG Export Plug-In . SVG Version: 2.1.4 Build 3)  -->
  <defs>
    <style>
      .st0 {
        fill: #3b5b81;
      }

      .st1 {
        fill: url(#linear-gradient2);
      }

      .st2 {
        fill: #254b75;
      }

      .st3 {
        fill: #2ca0d2;
      }

      .st4 {
        fill: #a8242d;
      }

      .st5 {
        fill: url(#linear-gradient10);
      }

      .st6 {
        fill: #2b86b8;
      }

      .st7 {
        fill: #2a96c7;
      }

      .st8 {
        fill: url(#linear-gradient1);
      }

      .st9 {
        fill: #e2563d;
      }

      .st10 {
        fill: #3690bc;
      }

      .st11 {
        fill: url(#linear-gradient9);
      }

      .st12 {
        fill: #86b244;
      }

      .st13 {
        fill: #324f6e;
      }

      .st14 {
        fill: #147555;
      }

      .st15 {
        fill: url(#linear-gradient8);
      }

      .st16 {
        fill: #b93739;
      }

      .st17 {
        fill: #f3a224;
      }

      .st18 {
        fill: url(#linear-gradient11);
      }

      .st19 {
        fill: #fdf9e6;
      }

      .st20 {
        fill: #6ca645;
      }

      .st21 {
        fill: #93be40;
      }

      .st22 {
        fill: #84b244;
      }

      .st23 {
        fill: url(#linear-gradient12);
      }

      .st24 {
        fill: #287bad;
      }

      .st25 {
        fill: url(#linear-gradient7);
      }

      .st26 {
        fill: url(#linear-gradient4);
      }

      .st27 {
        fill: url(#linear-gradient14);
      }

      .st28 {
        fill: url(#linear-gradient5);
      }

      .st29 {
        fill: #b5272e;
      }

      .st30 {
        fill: #df4439;
      }

      .st31 {
        fill: #e2363c;
      }

      .st32 {
        fill: url(#linear-gradient3);
      }

      .st33 {
        fill: #1d875a;
      }

      .st34 {
        fill: #fefef9;
      }

      .st35 {
        fill: url(#linear-gradient15);
      }

      .st36 {
        fill: #78b76f;
      }

      .st37 {
        fill: #c02a30;
      }

      .st38 {
        fill: #9cca78;
      }

      .st39 {
        fill: url(#linear-gradient6);
      }

      .st40 {
        fill: #48974d;
      }

      .st41 {
        fill: #237852;
      }

      .st42 {
        fill: #3a8c54;
      }

      .st43 {
        fill: url(#linear-gradient13);
      }

      .st44 {
        fill: #1c4d88;
      }

      .st45 {
        fill: url(#linear-gradient);
      }

      .st46 {
        fill: #97b94c;
      }

      .st47 {
        fill: #13705b;
      }

      .st48 {
        fill: #e34431;
      }

      .st49 {
        fill: #971e28;
      }

      .st50 {
        fill: #2182b3;
      }

      .st51 {
        fill: #a12229;
      }

      .st52 {
        fill: #2399cb;
      }
    </style>
    <linearGradient id="linear-gradient" x1="271.99" y1="-41.07" x2="223.39" y2="140.54" gradientTransform="translate(96.93 160.64) scale(.75)" gradientUnits="userSpaceOnUse">
      <stop offset="0" stop-color="#fac914"/>
      <stop offset=".37" stop-color="#f9bd17"/>
      <stop offset="1" stop-color="#ea7b21"/>
    </linearGradient>
    <linearGradient id="linear-gradient1" x1="213.67" y1="9.17" x2="258.84" y2="108.37" gradientTransform="translate(96.93 160.64) scale(.75)" gradientUnits="userSpaceOnUse">
      <stop offset="0" stop-color="#e78b1c"/>
      <stop offset=".38" stop-color="#eb8f1f"/>
      <stop offset="1" stop-color="#e06a20"/>
    </linearGradient>
    <linearGradient id="linear-gradient2" x1="446.37" y1="-88.92" x2="250.76" y2="74.67" gradientTransform="translate(96.93 160.64) scale(.75)" gradientUnits="userSpaceOnUse">
      <stop offset="0" stop-color="#19a8d9"/>
      <stop offset=".44" stop-color="#2ca5d8"/>
      <stop offset=".66" stop-color="#238cc7"/>
      <stop offset=".78" stop-color="#156ba7"/>
      <stop offset=".89" stop-color="#2868a5"/>
      <stop offset="1" stop-color="#1d5491"/>
    </linearGradient>
    <linearGradient id="linear-gradient3" x1="193.04" y1="-57.85" x2="159.18" y2="65.59" gradientTransform="translate(96.93 160.64) scale(.75)" gradientUnits="userSpaceOnUse">
      <stop offset="0" stop-color="#109bce"/>
      <stop offset=".32" stop-color="#2385bb"/>
      <stop offset=".66" stop-color="#225d97"/>
      <stop offset="1" stop-color="#054688"/>
    </linearGradient>
    <linearGradient id="linear-gradient4" x1="374.91" y1="-51.06" x2="275.2" y2="109.51" gradientTransform="translate(96.93 160.64) scale(.75)" gradientUnits="userSpaceOnUse">
      <stop offset="0" stop-color="#2085b5"/>
      <stop offset=".11" stop-color="#2382b9"/>
      <stop offset=".3" stop-color="#1d689c"/>
      <stop offset=".45" stop-color="#0d5fa2"/>
      <stop offset=".61" stop-color="#1f528a"/>
      <stop offset="1" stop-color="#20548e"/>
    </linearGradient>
    <linearGradient id="linear-gradient5" x1="-34.48" y1="48.16" x2="-108.56" y2="140" gradientTransform="translate(96.93 160.64) scale(.75)" gradientUnits="userSpaceOnUse">
      <stop offset="0" stop-color="#0872ac"/>
      <stop offset=".26" stop-color="#1f639c"/>
      <stop offset=".43" stop-color="#1b4982"/>
      <stop offset="1" stop-color="#003877"/>
    </linearGradient>
    <linearGradient id="linear-gradient6" x1="56.38" y1="15.88" x2="29.92" y2="106.08" gradientTransform="translate(96.93 160.64) scale(.75)" gradientUnits="userSpaceOnUse">
      <stop offset="0" stop-color="#217bae"/>
      <stop offset=".78" stop-color="#004c8d"/>
      <stop offset="1" stop-color="#1f568f"/>
    </linearGradient>
    <linearGradient id="linear-gradient7" x1="148.42" y1="-32.37" x2="115.73" y2="51.48" gradientTransform="translate(96.93 160.64) scale(.75)" gradientUnits="userSpaceOnUse">
      <stop offset="0" stop-color="#128ec4"/>
      <stop offset=".63" stop-color="#225d99"/>
      <stop offset="1" stop-color="#1d4b81"/>
    </linearGradient>
    <linearGradient id="linear-gradient8" x1="60.52" y1="-67.54" x2="-20.83" y2="40.19" gradientTransform="translate(96.93 160.64) scale(.75)" gradientUnits="userSpaceOnUse">
      <stop offset="0" stop-color="#0096ca"/>
      <stop offset="1" stop-color="#1f578e"/>
    </linearGradient>
    <linearGradient id="linear-gradient9" x1="303.31" y1="-102.74" x2="299.49" y2="-38.86" gradientTransform="translate(96.93 160.64) scale(.75)" gradientUnits="userSpaceOnUse">
      <stop offset="0" stop-color="#8ebe41"/>
      <stop offset=".59" stop-color="#67b048"/>
      <stop offset="1" stop-color="#3ba162"/>
    </linearGradient>
    <linearGradient id="linear-gradient10" x1="326.78" y1="72.62" x2="388.73" y2="154.91" gradientTransform="translate(96.93 160.64) scale(.75)" gradientUnits="userSpaceOnUse">
      <stop offset="0" stop-color="#3a934e"/>
      <stop offset=".13" stop-color="#41995d"/>
      <stop offset="1" stop-color="#226c69"/>
    </linearGradient>
    <linearGradient id="linear-gradient11" x1="344.67" y1="56.58" x2="417.2" y2="144.53" gradientTransform="translate(96.93 160.64) scale(.75)" gradientUnits="userSpaceOnUse">
      <stop offset="0" stop-color="#9cbf49"/>
      <stop offset=".45" stop-color="#6fae4e"/>
      <stop offset="1" stop-color="#4aa360"/>
    </linearGradient>
    <linearGradient id="linear-gradient12" x1="60.26" y1="-76.67" x2="92.63" y2="15.83" gradientTransform="translate(96.93 160.64) scale(.75)" gradientUnits="userSpaceOnUse">
      <stop offset="0" stop-color="#eb414b"/>
      <stop offset=".31" stop-color="#ed353d"/>
      <stop offset=".57" stop-color="#ee3f4d"/>
      <stop offset="1" stop-color="#e83641"/>
    </linearGradient>
    <linearGradient id="linear-gradient13" x1="100.36" y1="10.5" x2="9.74" y2="87.63" gradientTransform="translate(96.93 160.64) scale(.75)" gradientUnits="userSpaceOnUse">
      <stop offset="0" stop-color="#249ed2"/>
      <stop offset=".24" stop-color="#2aa0d5"/>
      <stop offset=".66" stop-color="#1a7fba"/>
      <stop offset="1" stop-color="#055594"/>
    </linearGradient>
    <linearGradient id="linear-gradient14" x1="245.46" y1="-83.37" x2="238.51" y2="-33.86" gradientTransform="translate(96.93 160.64) scale(.75)" gradientUnits="userSpaceOnUse">
      <stop offset="0" stop-color="#f2a620"/>
      <stop offset="1" stop-color="#e4851f"/>
    </linearGradient>
    <linearGradient id="linear-gradient15" x1="442.09" y1="-88.57" x2="418.27" y2="-20.62" gradientTransform="translate(96.93 160.64) scale(.75)" gradientUnits="userSpaceOnUse">
      <stop offset="0" stop-color="#19a7d8"/>
      <stop offset=".5" stop-color="#27a3d3"/>
      <stop offset="1" stop-color="#0c8ac1"/>
    </linearGradient>
  </defs>

  <path class="st45" d="M334.9,171.39l-2.13-.6c-13.67-25.89-41.09-29.88-57.87-4.13l-40.77,82.75c-1.45,2.25-6.08,9.02-8.31,9.61-.8.21-1.57.17-2.34-.16-2.76-.75-4.83-2.98-6.2-6.69l-3.2-7.46.85-2.31c7.09-11.09,12.5-23.1,18.26-34.82,8.23-21.28,18.57-42.92,31.8-61.87,20.93-27.37,70.91-17.63,83.49,13.43.14.92-11.97,11.5-13.59,12.25Z"/>
  <path class="st8" d="M334.9,171.39l.17.66-13.96,13.97c-2.25-2.94-3.91-6.4-4.99-10.38-3.97-7.6-8.7-14.06-17.09-11.29-2.56.84-5.99,3.03-7.68,6.49l-31.59,64.68-10.02,19.97c-2.73,5.44-6.08,10.77-10.92,13.81-5.74.88-11.65-4.29-15.53-8.37l.19-2.08c4.88-3.27,8.4-7.94,11.05-13.36l17.71-36.11,20.93-42.65c5.01-10.2,15.07-17.07,26.18-18.63,17.24-2.43,27.24,9.75,35.55,23.28Z"/>
  <path class="st1" d="M399.51,131.63l.42,1.69c-32.06,31.73-63.94,63.51-95.66,95.34h-2.23c-3.83-3.41-8.31-5.95-13.43-7.64-4.34-2.08-8.95-8.3-8.81-12.99l5.23-11.63,17.27,16.58,11.44-11.08,50.06-50.8,26.78-27.38-13.5-12.96,41.55-11.93c5.4-.89,10.84-1.94,16.34-3.16,1.32,2.52-.1,4.67-4.24,6.44-9.56,10.14-19.36,20.08-29.4,29.82l-1.82-.3Z"/>
  <path class="st32" d="M220.16,220.28c-.71-33.36-.68-68.03-.04-101.45h32.35s.02,34.71.02,34.71l-32.33,66.74Z"/>
  <path class="st26" d="M407.91,141.36l-49.66,49.01-56.15,55.79-27.38-27.72,5.08-10.42c1.11.49,1.13,2.71,1.93,3.31,2.03,1.52,2.21,4.02,3.57,5.5,4.33,4.72,13.35,4.85,17.85,11.14,2.06-2.78,4.39-4.12,6.37-6.17l15.45-16.03c2.08-2.16,3.98-3.84,6.09-5.97l36.88-37.07c3.65-3.67,6.97-6.88,10.61-10.47l20.94-20.63c1.68.25,3.27,1.38,4.76,3.37,2.48,1.44,4.63,3.09,6.44,4.92.31,1.72-.62,2.2-2.8,1.44Z"/>
  <path class="st28" d="M64.39,187.71c1.08,1.14.46,2.12-1.88,2.94-.21,6.15,1.36,9.6,4.73,10.35,4.8-.06,9.58.97,14.35,3.09,2.79-.4,5.55-.86,8.28-1.39-.35-2.01,6.24-9.07,7.56-8.76.78.19.77,1.08.21,1.82-3.71,7.84-11.58,16.37-19.16,13.1-3.31-1.42-5.77-3.53-8.88-5.65l-7.03,13.84c6.96,4.12,18.29,9.25,18.16,15.24-.16,7.62-18.11,17.87-27.78,20.47,2.4-8.47,17.71-17.69,13.52-19.91s-8.69-2.72-13.22-4.05c-4.33,8.96-10.57,15.75-18.22,21.65-5.89,4.54-10.56,9.79-14.99,15.72-2.54,3.4-4.11,7.21-7.5,10.15,1.79-11.51,6.68-21.91,14.43-30.23,6.8-7.28,12.03-14.63,15.55-24.14,3.22-8.71,7.43-16.76,9.99-26.15-4.06-3.17-9.66-2.46-13.04,1.49l-8.63,10.07c-3.91,4.56-6.11-3.61,5.9-17.96,6.4-7.65,18.07-4.68,27.63-1.67Z"/>
  <path class="st39" d="M185.71,183.25l4.67,10.04c-16.14,16.26-39.56,32.46-62.54,35.4l-17.19,2.2c-8.05,1.03-15.77,1.31-24.06,3.34.65-9.52-8.57-14.32-17.15-18.92.06-1.89,1.01-3.46,2.28-4.68,8.34,6.72,14.09,4.57,22.13-.48.89.71.97,1.85.25,3.43.2,1.76,5.34,1.98,6.81,2.02,29.76.74,61.42-11.58,82.54-33.15.85-.68,1.6-.11,2.25.8Z"/>
  <polygon class="st25" points="208.71 217.12 176.74 150.42 176.69 134.44 209.1 134.42 208.71 217.12"/>
  <path class="st15" d="M143.78,97.93c1.24.99,1.09,1.46-.43,1.81-4.32,4.64-8.15,9.75-11.24,15.24l-1.76-.58c-5.08,8.99-6.37,20.51-6,30.75.55.1.61.35.18.74-4.47,10.76-9.77,20.99-14.86,31.67-1.92,4.03-3.33,7.8-5.91,11.91-.91-2.47-2.39-4.24-4.43-4.95-2.3-.79-4.96-.28-6.69,1.55l-9.42,9.9-5.08-4.72c2.71-2.03,4.22-4.62,5.84-7.17,4.7-10.65,9.89-21.29,15.56-31.9l2.21-2.53c-.51-.29-1.25-.83-1.11-1.21,7.17-19.21,17.42-43.9,38.55-50.52h4.58Z"/>
  <path class="st11" d="M338.49,137.66c-9.89-6.7-20.12-11.55-32.11-13.08v-41.47s32.14-.13,32.14-.13l-.03,54.69Z"/>
  <path class="st5" d="M352.5,206.52c4.93,8.03,9.28,17.31,13.25,26.11.07.16-.13.44-.42.75,4.11,5.76,7.49,12.49,10.59,18.89l1.76-.02c6.99,9.3,14.77,17.82,26.27,21.88l1,2.05-22.36-.03c-10.12-.02-18.79-5.2-23.71-13.91l-6.19-10.96-15.15-31.71,14.39-14.08c1.35-.43,1.62.07.57,1.03Z"/>
  <path class="st4" d="M178.83,211.36c1.37.35,2.26,1.53,2.68,3.52l16.58,33.33c7.47,12.95,16.6,23.37,32.81,23.31l2.01,1.49c-5.73,3.6-12.56,3.06-19.51,3.33-9.68.37-18.79-1.48-26.1-7.94-4.68-4.14-8.2-8.86-10.95-14.57l-14.84-30.86c6.39-3.67,12.18-7.2,17.32-11.61Z"/>
  <path class="st18" d="M404.96,276.18c-6.89-2.9-14.4-6.46-19.65-12.51l-5.57-6.41c-1.63-1.87-2.71-3.16-3.83-4.98-3.01-6-6.18-12.09-9.51-18.27v-1.6s-.78-.01-.78-.01l-11.78-24.48-1.35-1.39c-.11-.24-.36-.46-.57-1.03,2.09-2.05,3.84-4.46,6.51-5.98l7.58-7.57,31.48,64.65,11.22,19.31c-1.21.72-2.48.28-3.76.28Z"/>
  <path class="st31" d="M214.93,242.39c1.68,5.82,4.66,11.7,8.55,16.46,2.99,3.66,6.91,7,11.78,8.76,1.32.48,3.08.22,3.55,1.7l-5.91,3.71c-25.91.68-34.45-20.09-44.83-41.34l-6.61-13.52c-1.09-2.24-2.34-4.24-2.65-6.79l14.19-12.19,19.9,40.65c.59,1.21,1.09,2.06,2.01,2.57Z"/>
  <path class="st23" d="M161.24,178.38l-1.9.53c-8.93-17.2-16.92-36.02-22.33-54.83-2.36-8.23-.53-18.78,6.34-24.34-.25-.66.18-1.35.43-1.81,1.56,0,1.8.68,2.42,2.19,5.49,13.5,12,26.09,18.19,39.29l12.05,25.7c-5.02,5.27-9.99,9.41-15.21,13.27Z"/>
  <path class="st43" d="M185.71,183.25c-1.33.06-2.15.93-3.27,2.02-17.54,17.11-39.55,27.76-64,30.39-9.77,1.05-24.12,3.27-25.72-1.5-.34-1.02.35-2.97,1.13-4,6.33-8.29,6.53-7.55,16.97-8.14,26.22-1.47,50.15-12.12,68.65-30.87l6.24,12.1Z"/>
  <path class="st29" d="M161.24,178.38c-4.79,3.54-9.91,6.79-16.07,9.19l-20.62-41.68c-.22-.12-.25-.51-.18-.74-.37-10.36.93-21.61,6-30.75,1.13-.42,1.47-1.8,2.11-2.98,2.66-4.94,6.55-8.69,10.88-11.68-5.31,7.17-7.21,16.44-4.43,25.66,5.25,17.39,12.48,33.61,19.95,50.14.59,1.31,1.09,2.23,2.36,2.83Z"/>
  <path class="st3" d="M139.2,97.92c-.44,1.86-2.22,2.06-3.85,2.89-10.97,5.56-18.89,15.11-23.78,26.32l-9.82,22.52c-3.84,5.69-12.46-3.12-14.93-6.98.04-2.86.55-5.81,1.51-8.84l7.65-15.5c4.03-8.34,10.79-15.42,19.73-18.4,7.8-2.6,15.75-2.03,23.48-2.01Z"/>
  <path class="st27" d="M265.06,138.33l-.72.03-.81.38c-.22-12.11-.46-24.2-.72-36.26-.9-.61-.99-1.93-.26-3.97,4.13-.32,31.09-1.36,32.71-.15,1.03.77.82,24.6.13,25.7-.44.7-1.18,1.43-1.88,1.88-10.31,2.19-19.51,7.27-28.44,12.4Z"/>
  <path class="st35" d="M407.91,141.36c.33-.06,1.07-.34,1.78-1.11-3.84-2.28-8.03-4.43-10.18-8.62l15.93-15.82,10.37-10.47c2.6-2.63,4.36-6.07,8.21-6.51,1.69-3.73-1.78-2.05-9.86-.32-1.86.4-4.03,1.94-5.53.31l19.04-4.94-15.79,61.52-10.7-11.93c-.95-1.06-1.74-2.08-3.27-2.11Z"/>
  <path class="st44" d="M48.65,255.88c2.98,2.18,6.18,2.27,9.76.7l10.32-4.53,4.28-2.29c-.27,2.5-1.16,5.08-2.65,7.74-2.28,6.46-10.6,15.4-18.46,17.25-3.93.56-7.77.8-11.71.97-2.5.11-16.22.37-17.54-.36-.36-.2-.65-.45-.73-.76.98-1.79,1.42-3.03,1.32-3.74,5.72-9.09,13.97-15.42,22.21-21.96,1.65-1.12,2.46-1.16,2.42-.12-.55,2.41-.88,5.08.78,7.11Z"/>
  <path class="st19" d="M316.11,175.64l5.02,9.61,13.77-13.86,12.42-12.29c-12.25-29.52-53.71-37.1-77.08-17.72-6.1,5.06-10.57,11.58-14.06,18.79l-20.47,42.31-2.51,5.09,4.52-15.03c2.94-8.49,8.68-15.05,13.41-25.57,3.56-7.93,8.39-15.19,13.76-21.99l6.06-5.98c.88-.87,1.23-1.41.7-2.43-1.1-2.09-4.54,1.66-6.57,1.75,6.58-6.01,14.87-10.35,23.86-12.71,2.19-.58,4.32-.66,6.04-2.45l.05-24.43h-32.09s-.11,3.74-.11,3.74c.27,12.02.51,24.06.72,36.13l-.72.51c-1.62-2.84.28-8.49-2.91-14.48,3.08-10.74-.83-27.3,3.75-27.31l29.85-.11c2.13,0,3.1,1.81,3.07,3.72l-.43,23.64c-.01.62-1.44,1.68-1.36,2.25.11.81,1.03,2.06,2.19,2.14l9.84.7,8.75,1.69c13.15,2.54,31.25,15.03,34.27,28.5-9.23,7.81-17.82,15.27-25.58,24.21-.89,1.03-3.16,4.06-4.54,2.18-1.91-3-2.85-7.22-3.59-10.6Z"/>
  <path class="st30" d="M228.39,55.95c7,4.07,8.05,7,3.16,8.8,1.83,3.01,1.73,4.74-.29,5.2l-1.33,2.86-2.73,7.49c-1.4,3.84,8.1,3.31,13.39,10.55,2.72,7.5-2.55,7.45-7.17,2.95-5.18-2.41-10.65-4.02-16.43-4.84-6.18-2.6-6.5-5.92-2.71-11.1l1.15-4.37-.98-.46c3.21-8.82,1.66-12.97-4.64-12.45-9.18,5.12-10.62-4.28-1.57-5.79.06-.01-1.01.36-.91-.45,6.71-.98,14.46-.75,21.08,1.6Z"/>
  <path class="st7" d="M101.75,149.65c-4.71,10.81-9.92,21.42-15.67,32.07-.58,1.07-1.66,1.69-2.09,2.36,3.64-8.23-.74-17.75-9.78-20.34l14.13-29.91c1.15.94.45,2.17-.17,3.7-.68,1.67-.24,5.37,1.14,6.5l5.01,4.11c2.46,2.02,4.74,2.73,7.43,1.51Z"/>
  <path class="st14" d="M318.04,55.73c-1.25-.3-2.18.52-3.02,1.69l-7.18,10.05-24.94,20.68c-7.2-4.04,6.4-15.05,13.6-22.39,4.57-4.66,6.86-11.35,8.83-17.2,1.56-.42,2.44.77,2.63,3.56,3.49,1.16,7.11,1.59,10.86,1.3,1.77,1.51,1.49,2.61-.77,2.28Z"/>
  <path class="st49" d="M224.08,93.71c-6.12-2.54-5.63,7.62-13.92,13.79l-21.03,15.65c-1.08.8-2.48.47-2.95-.55-2.23-4.87,17.92-18.18,20.58-27.47l3.7-12.9c1.23-.68,1.89.55,1.99,3.69,2.53,3.06,6.38,5.02,11.56,5.88l.05,1.92Z"/>
  <path class="st40" d="M312.75,15.51c1.68-.62,2.76.15,3.26,2.32,6.68,2.13,9.12,4.96,5.5,11.7.69,1.34.02,2.88-2.01,4.6,1.32,3.83,3.34,6.94,7.12,8.56-.48.62-1.37,2.68-.45,3.12,6.36,3.06,14.53,5.37,15.29,10.03-.58,3.02-1.74,5.3-5.06,3.93l-4.65-3.81c-7.42-1.51-14.65-3.47-21.7-5.88-2.3-4.7,1.69-11.65,4.25-15.93l2.8-3.8c1.13-1.54,2.31-3.43,1.85-5.13l-3.51-2.84c-6.88-1.04-9.01-2.93-6.41-5.68,1.15-.37,2.59-.72,3.72-1.17Z"/>
  <ellipse class="st6" cx="71.31" cy="177.67" rx="9.14" ry="9.13"/>
  <path class="st9" d="M229.93,72.82c.47-1.3.04-2.74,1.67-4.2-.61-1.71-1.67-2.95-1.8-5.19,1.6-.32,3.34-.69,4.14-1.98l-5.55-5.5c5.61,1.99,9.6,7.35,13.71,12.04,7.09-2.79,11.79-11.75,14.76-7.86,2.1,2.75-6.46,10.79-11.62,15.05-4.16,3.43-8.57-.53-13.13-5.22-1.25.93-1.57,1.94-2.18,2.85Z"/>
  <path class="st24" d="M87.43,198.69c1.14.49,1.96,1.83,2.44,4.01-7.47,5.21-10.74,2.35-16.96-.14-2.04-.81-9.83,2.03-10.76-4.2l-1.42-9.48c1.79.08,3.09-.24,3.66-1.17,13.16,4.13,15.12,17.29,23.05,10.98Z"/>
  <path class="st33" d="M341.46,55.83c.53,3.26-2.04,5.83-4.48,7.78-3.14,1.61-10.2.29-8.85-3.79-2.79-3.25-5.55-2.94-10.09-4.08.65-.16.7-1.18.4-1.15-4.2.83-7.95.28-11.5-1.46l-1.61-4.55c1.89-5.61,4.46-10.41,8.99-14.44l-3.78,13.26c-1.1,3.66,11.09,3.48,21.92,7.25l4.89,3.96c1.64,1.33,3.61-1.15,4.11-2.77Z"/>
  <ellipse class="st12" cx="339.78" cy="11.1" rx="7.88" ry="7.88"/>
  <path class="st22" d="M340.84,28.35l.74-.33c2.19,3.26,4.4,4.3,6.65,3.11,4.69-3.36,7.22-3.2,7.6.47l-5.49,5.12c-1.39,1.68-4.78,3.67-7.17,2.79-4.03-1.49-7.22-6.83-9.19-5.46l-1.62,1.12c-2.43,1.84-10.57-2.89-11.19-4.97-.11-.38,2.15-7.96,3.86-4.94,3.16,2.77,6.58,4.03,10.25,3.79,2.2-1.06,4.05-1.29,5.55-.7Z"/>
  <path class="st37" d="M240.59,90.86c1.89,2.59,2.46,5.52.63,8.13-4.09,3.77-8.79,1.52-10.43-2.62l-2.67-1.27c-1.2.09-3.2-.51-4.03-1.38-2.53-2.67-10.12-1.24-12.81-7.03-.64-1.38.13-3.66-.8-4.46.27-.94.55-2.14,1.18-2.88,1.16-1.83,2.06-3.83,2.7-6.01l1.07.17c-.02,1.9.32,3.44-.85,5.63-6.91,12.92,13.01,5.57,23.25,16.31.57.6,2.85-.56,2.81-1.32l-.04-3.26Z"/>
  <path class="st16" d="M207.31,54.35c.25.15,1.19-.32,1.54.79-2.08.25-6,1.81-5.7,4.51.18,1.58,3.29.91,4.33.29,3.43-2.07,8.25-.79,9.19,3.16.84,3.5-1.22,7.25-1.25,10.41-1.97,3.04-1.75,5.75-3.77,5.84l3.95-15.97c-2.12-2.89-8.03-.86-9.77,2.32-3.37,6.16-4.28,11.8-6.97,10.57-3.36-1.54-.11-20.66,8.45-21.91Z"/>
  <path class="st51" d="M241.22,98.98c-4.66,6.65-17.89,16.16-19.64,13.57s5.46-10,9.99-14.52c-1-1.5-2.39-2.01-3.45-2.93,1.49-.11,2.17-.1,3.45,1.27,2.94,3.15,7.53,4.35,8.79,2.02.25-.47.93-.18.87.6Z"/>
  <path class="st47" d="M336.97,63.61c-5.7,4.55-18.52,13.84-20.28,10.79-2.03-3.51,6.44-9.81,11.44-14.58,3.99,4.65,6.42,2.14,8.85,3.79Z"/>
  <path class="st20" d="M322.02,16.1c1.22.48,1.95,1.1,2.2,1.86.64.5.86,1.18.67,2.05,2.51,3.29,2.56,5.04.15,5.25-1.49.93-2.62,2.48-3.03,4.51,3.33,2.27,6.91,4.13,10.35,5.39l-5.75,7.51c-3.59,2.09-6.62-3.32-9-8.85,2.75-2.39,4.03-5.04,4.24-8.49.43-7.16-8.7-3.39-7.68-9.43-.56-.25-.98-.26-1.42-.4,3.1-1.24,6.2-.14,9.27.59Z"/>
  <path class="st46" d="M350.34,36.72l4.53-5.49c-2.26-3.84-7.41,3.11-10.52.28l-3.5-3.17-1.98-.34c-3.07-4.59-7.94-7.74-13.44-8.43l-1.2-1.61c-.73-.04-1.81-1.2-2.2-1.86l6.22,1.48c11.27,2.67,11.26,8.49,17.78,14.06,7.31-3.26,12.19-11.09,14.91-8.89,3.52,2.83-4.53,10.47-10.6,13.97Z"/>
  <path class="st41" d="M313.39,22.88c-7.22,1.54-15.48,9.36-18.3,7.98-3.77-1.85,3.37-7.22,8.95-10.88,3.06.47,6.07,1.07,9.03,1.8l.32,1.09Z"/>
  <path class="st30" d="M241.34,48.29c-.38,4.42-4,6.5-7.34,6.54-3.56.04-6.6-2.08-7.65-5.36-1.17-3.67.33-7.57,3.76-9.61,2.58-1.54,5.46-1.18,7.8.33s3.74,4.49,3.43,8.1Z"/>
  <path class="st52" d="M220.16,220.28c-.26-.42-.61-.6-.79-1.27v-98.54c0-.99.31-1.36.74-1.65l.04,101.45Z"/>
  <path class="st10" d="M97.65,195.76c-.21-1.03-1.24-.81-1.03.04-2.21,2.75-4.15,5.09-6.74,6.9-1-.05-1.82.2-3.26-.9.61-.96,1.58-2.02.82-3.11,3.14-2.42,5.94-4.71,7.62-8.77.53-1.27,3.1-.96,3.63.17,1.13,2.42-.26,4.03-1.04,5.67Z"/>
  <path class="st42" d="M309.04,16.69c-.14.62.13,3.21,1.16,3.26,3.72.18,7.81,1.72,8.76,5.26-1.62-1.69-3.54-1.84-5.57-2.32-5.95-1.4-8.68.23-9.34-2.9,1.6-1.05,2.89-2.62,4.99-3.3Z"/>
  <path class="st13" d="M48.65,255.88c-3.52-2.56.24-7.34-3.2-6.99,6.59-5.22,10.82-16.75,13.66-12.79-6.34,6.71-13.74,12.53-10.46,19.78Z"/>
  <path class="st2" d="M51.9,274.74l-5.48,1.29-26.49.3c.8-2.53,2.31-3.88,3.31-5.48.23-.26.81.07.79.33-.05.93-1.07,2.14-.89,2.89.38,1.56,14.72,1.54,22.35.98,2.25-.17,4.35-1.11,6.4-.31Z"/>
  <path class="st17" d="M264.34,138.36c-.07.28-.25.63-.46.74s-.82.07-1.08.02v-36.64c.29-.04.75.26.75.8v34.29c0,.58.43.89.79.79Z"/>
  <path class="st0" d="M70.37,257.5l2.48-7.03c-1.72,1.17-2.89,1.05-4.12,1.58l6.9-4.65-5.27,10.1Z"/>
  <path class="st50" d="M124.36,145.15c-2.13-7.45,2.44-29.42,6-30.75-4.36,10-5.56,19.89-6,30.75Z"/>
  <path class="st38" d="M366.41,232.4c.5,1.42.19,1.87-1.08.98l-12.83-26.86c1.26-.23,1.6.48,2.17,1.64l11.75,24.23Z"/>
  <path class="st36" d="M375.92,252.27c-3.75-6.15-7.47-12.38-10.59-18.89l1.08-.98c2.93,6.04,5.84,12.14,9.62,18.02.28.44.47.79.47,1.2,0,.23-.06.56-.59.65Z"/>
  <path class="st21" d="M340.84,28.35c-4.3,2.88-9.31,3.29-13.63.04-.66-.5-1.92-.71-2.19-1.23-.24-.46-.24-1.53.01-1.89,1.77-2.52-3.67-4.16-.83-7.3,7.01.38,13.13,4.38,16.63,10.38Z"/>
  <path class="st48" d="M240.18,48.3c.75,2.07-2.41,4.2-3.96,4.9-2.15.97-4.78.38-6.63-1.27-2.27-2.03-3.54-4.14-2.3-7.03.81-1.88,3.04-4.98,5.91-3.3,2.46,1.45,4.97,4.35,6.98,6.7Z"/>
</svg>